<?xml version="1.0" encoding="UTF-8"?>
<svg id="Layer_1" xmlns="http://www.w3.org/2000/svg" version="1.1" viewBox="0 0 531 307">
  <!-- Generator: Adobe Illustrator 30.2.1, SVG Export Plug-In . SVG Version: 2.1.1 Build 1)  -->
  <defs>
    <style>
      .st0 {
        fill: #204ead;
      }

      .st1 {
        fill: #3a3a3a;
      }
    </style>
  </defs>
  <path id="Layer" class="st1" d="M28.11,123.34c-8.8,8.31-9.19,22.23-.88,31.03l75.37,79.76c8.31,8.8,22.23,9.19,31.03.88l79.76-75.37c8.8-8.31,9.19-22.23.88-31.03l-75.37-79.76c-8.31-8.8-22.23-9.19-31.02-.88L28.11,123.34ZM59.14,124.22l15.07,15.95,15.95-15.07-15.07-15.95,15.95-15.07,15.07,15.95,15.95-15.07-15.07-15.95,15.95-15.07,15.07,15.95-15.95,15.07,15.07,15.95,15.95-15.07,15.07,15.95-15.95,15.07,15.07,15.95,15.95-15.07,15.08,15.95-15.95,15.07-15.07-15.95-15.95,15.07,15.07,15.95-15.95,15.08-15.07-15.95-15.95,15.07,15.07,15.95-15.95,15.07-15.07-15.95,15.95-15.07-15.07-15.95-15.95,15.07-15.07-15.95,15.95-15.07-15.07-15.95-15.95,15.07-15.07-15.95,15.95-15.07ZM105.24,141.05l15.95-15.07-15.07-15.95-15.95,15.07,15.08,15.95ZM120.31,157l-15.07-15.95-15.95,15.07,15.07,15.95,15.95-15.07ZM136.27,141.92l-15.95,15.08,15.07,15.95,15.95-15.07-15.07-15.95ZM136.27,141.92l15.95-15.07-15.07-15.95-15.95,15.07,15.07,15.95Z"/>
  <path id="Layer1" data-name="Layer" class="st0" d="M176.74,169.92c-6.73,12.64-16.85,22.24-28.46,28.22l14.53,52.53c1.44,5.18-1.54,10.77-6.64,12.48-5.1,1.7-10.41-1.13-11.85-6.31l-14.53-52.53c-12.68,2.12-25.95.32-37.96-6.08-30.05-16.01-40.75-54.61-23.9-86.26,16.85-31.64,54.86-44.31,84.91-28.3s40.75,54.61,23.9,86.26ZM101.21,180.59c20.79,11.08,47.13,2.3,58.79-19.59,11.66-21.89,4.25-48.64-16.54-59.72-20.8-11.08-47.13-2.3-58.79,19.6-11.66,21.89-4.25,48.64,16.55,59.72Z"/>
  <g>
    <path class="st1" d="M263.34,117.51h4.5c-.23,2.16-.85,4.09-1.85,5.79s-2.41,3.05-4.24,4.04-4.11,1.49-6.84,1.49c-2,0-3.82-.38-5.45-1.12s-3.04-1.82-4.21-3.2-2.07-3.05-2.71-4.99-.95-4.11-.95-6.5v-3.4c0-2.39.32-4.56.95-6.5s1.55-3.61,2.74-5,2.64-2.46,4.32-3.21,3.59-1.12,5.7-1.12c2.58,0,4.76.48,6.54,1.45s3.17,2.31,4.16,4.02,1.61,3.69,1.84,5.94h-4.5c-.22-1.59-.62-2.96-1.22-4.11s-1.44-2.04-2.53-2.66-2.52-.94-4.29-.94c-1.52,0-2.85.29-4,.87s-2.11,1.4-2.88,2.46-1.36,2.34-1.75,3.82-.59,3.13-.59,4.95v3.45c0,1.67.18,3.24.53,4.71s.89,2.76,1.61,3.87,1.63,1.98,2.74,2.61,2.42.95,3.94.95c1.92,0,3.45-.3,4.59-.91s2-1.48,2.59-2.62,1-2.51,1.25-4.1Z"/>
    <path class="st1" d="M277.66,92.37v36h-4.34v-36h4.34ZM276.63,114.73l-1.8-.07c.02-1.73.27-3.34.77-4.82s1.2-2.76,2.11-3.86,1.99-1.94,3.25-2.54,2.65-.9,4.18-.9c1.25,0,2.38.17,3.38.5s1.86.87,2.57,1.61,1.25,1.68,1.63,2.85.56,2.58.56,4.25v16.62h-4.36v-16.66c0-1.33-.2-2.39-.59-3.2s-.96-1.39-1.71-1.76-1.67-.55-2.77-.55-2.06.23-2.94.68-1.64,1.08-2.27,1.88-1.12,1.71-1.48,2.73-.53,2.11-.53,3.25Z"/>
    <path class="st1" d="M310.29,128.83c-1.77,0-3.36-.3-4.79-.9s-2.66-1.45-3.68-2.54-1.81-2.39-2.36-3.89-.82-3.14-.82-4.92v-.98c0-2.06.3-3.9.91-5.52s1.44-2.99,2.48-4.11,2.23-1.98,3.56-2.55,2.7-.87,4.12-.87c1.81,0,3.38.31,4.7.94s2.4,1.5,3.25,2.61,1.47,2.43,1.88,3.94.61,3.15.61,4.93v1.95h-18.94v-3.54h14.6v-.33c-.06-1.12-.29-2.22-.69-3.28s-1.03-1.94-1.89-2.62-2.03-1.03-3.52-1.03c-.98,0-1.89.21-2.72.62s-1.54,1.03-2.13,1.84-1.05,1.8-1.38,2.98-.49,2.52-.49,4.05v.98c0,1.2.17,2.33.5,3.39s.83,1.98,1.48,2.78,1.44,1.42,2.37,1.88,1.99.68,3.18.68c1.53,0,2.83-.31,3.89-.94s1.99-1.46,2.79-2.51l2.62,2.09c-.55.83-1.24,1.62-2.09,2.37s-1.88,1.36-3.11,1.83-2.68.7-4.35.7Z"/>
    <path class="st1" d="M339.98,121.64c0-.62-.14-1.21-.41-1.75s-.83-1.03-1.66-1.48-2.09-.83-3.76-1.16c-1.41-.3-2.68-.65-3.81-1.05s-2.09-.9-2.88-1.48-1.39-1.26-1.82-2.04-.63-1.7-.63-2.74.22-1.95.67-2.84,1.08-1.68,1.9-2.37,1.81-1.23,2.96-1.62,2.45-.59,3.87-.59c2.03,0,3.77.36,5.2,1.08s2.54,1.68,3.3,2.87,1.15,2.52,1.15,3.97h-4.34c0-.7-.21-1.39-.62-2.05s-1.02-1.21-1.8-1.65-1.75-.66-2.89-.66c-1.2,0-2.18.18-2.92.55s-1.28.83-1.62,1.39-.5,1.16-.5,1.78c0,.47.08.89.25,1.25s.46.7.88,1.01,1.02.59,1.78.86,1.74.53,2.93.8c2.08.47,3.79,1.03,5.13,1.69s2.34,1.46,3,2.41.98,2.11.98,3.47c0,1.11-.23,2.12-.69,3.05s-1.12,1.71-1.99,2.38-1.9,1.18-3.09,1.55-2.54.55-4.02.55c-2.23,0-4.12-.4-5.67-1.2s-2.72-1.83-3.52-3.09-1.2-2.6-1.2-4.01h4.36c.06,1.19.41,2.13,1.03,2.82s1.39,1.19,2.3,1.48,1.8.43,2.7.43c1.19,0,2.18-.16,2.99-.47s1.42-.74,1.84-1.29.63-1.17.63-1.88Z"/>
    <path class="st1" d="M364.76,121.64c0-.62-.14-1.21-.41-1.75s-.83-1.03-1.66-1.48-2.09-.83-3.76-1.16c-1.41-.3-2.68-.65-3.81-1.05s-2.09-.9-2.88-1.48-1.39-1.26-1.82-2.04-.63-1.7-.63-2.74.22-1.95.67-2.84,1.08-1.68,1.9-2.37,1.81-1.23,2.96-1.62,2.45-.59,3.87-.59c2.03,0,3.77.36,5.2,1.08s2.54,1.68,3.3,2.87,1.15,2.52,1.15,3.97h-4.34c0-.7-.21-1.39-.62-2.05s-1.02-1.21-1.8-1.65-1.75-.66-2.89-.66c-1.2,0-2.18.18-2.92.55s-1.28.83-1.62,1.39-.5,1.16-.5,1.78c0,.47.08.89.25,1.25s.46.7.88,1.01,1.02.59,1.78.86,1.74.53,2.93.8c2.08.47,3.79,1.03,5.13,1.69s2.34,1.46,3,2.41.98,2.11.98,3.47c0,1.11-.23,2.12-.69,3.05s-1.12,1.71-1.99,2.38-1.9,1.18-3.09,1.55-2.54.55-4.02.55c-2.23,0-4.12-.4-5.67-1.2s-2.72-1.83-3.52-3.09-1.2-2.6-1.2-4.01h4.36c.06,1.19.41,2.13,1.03,2.82s1.39,1.19,2.3,1.48,1.8.43,2.7.43c1.19,0,2.18-.16,2.99-.47s1.42-.74,1.84-1.29.63-1.17.63-1.88Z"/>
    <path class="st0" d="M242.74,151.84h11.3c2.56,0,4.73.39,6.5,1.17,1.77.78,3.12,1.93,4.05,3.46s1.39,3.4,1.39,5.61c0,1.56-.32,2.99-.95,4.28s-1.54,2.38-2.72,3.28c-1.18.9-2.59,1.57-4.23,2l-1.27.49h-10.62l-.05-3.68h8.02c1.62,0,2.98-.28,4.05-.86,1.08-.57,1.89-1.34,2.44-2.31.55-.97.82-2.04.82-3.21,0-1.31-.26-2.46-.77-3.45s-1.32-1.75-2.43-2.29-2.52-.81-4.25-.81h-6.77v30.42h-4.52v-34.12ZM262.69,185.97l-8.3-15.47,4.71-.02,8.41,15.21v.28h-4.83Z"/>
    <path class="st0" d="M282.19,186.43c-1.77,0-3.36-.3-4.79-.9-1.43-.6-2.66-1.45-3.68-2.54-1.02-1.09-1.81-2.39-2.36-3.89s-.82-3.14-.82-4.92v-.98c0-2.06.3-3.9.91-5.52s1.44-2.99,2.48-4.11,2.23-1.98,3.56-2.55c1.33-.58,2.7-.87,4.12-.87,1.81,0,3.38.31,4.7.94,1.32.63,2.4,1.5,3.25,2.61.84,1.12,1.47,2.43,1.88,3.94.41,1.51.61,3.15.61,4.93v1.95h-18.94v-3.54h14.6v-.33c-.06-1.12-.29-2.22-.69-3.28-.4-1.06-1.03-1.94-1.89-2.62-.86-.69-2.03-1.03-3.52-1.03-.98,0-1.89.21-2.72.62-.83.42-1.54,1.03-2.13,1.84-.59.81-1.05,1.8-1.38,2.98s-.49,2.52-.49,4.05v.98c0,1.2.17,2.33.5,3.39s.83,1.98,1.48,2.78,1.44,1.42,2.37,1.88c.93.45,1.99.68,3.18.68,1.53,0,2.83-.31,3.89-.94,1.06-.62,1.99-1.46,2.79-2.51l2.62,2.09c-.55.83-1.24,1.62-2.09,2.37s-1.88,1.36-3.11,1.83-2.68.7-4.35.7Z"/>
    <path class="st0" d="M301.48,149.97v36h-4.36v-36h4.36ZM316.97,160.61l-11.06,11.84-6.19,6.42-.35-4.62,4.43-5.3,7.88-8.34h5.3ZM313.01,185.97l-9.05-12.09,2.25-3.87,11.91,15.96h-5.11Z"/>
    <path class="st0" d="M320.3,173.57v-.54c0-1.83.27-3.53.8-5.1s1.3-2.94,2.3-4.1c1-1.16,2.21-2.07,3.63-2.72,1.42-.65,3.02-.97,4.78-.97s3.39.33,4.82.97c1.43.65,2.65,1.56,3.66,2.72,1.01,1.17,1.78,2.53,2.31,4.1s.8,3.27.8,5.1v.54c0,1.83-.27,3.52-.8,5.09-.53,1.56-1.3,2.93-2.31,4.09-1.01,1.17-2.22,2.07-3.63,2.72-1.41.65-3.01.97-4.79.97s-3.38-.32-4.8-.97c-1.42-.65-2.64-1.55-3.64-2.72-1.01-1.16-1.78-2.53-2.31-4.09-.53-1.56-.8-3.26-.8-5.09ZM324.63,173.03v.54c0,1.27.15,2.46.45,3.57.3,1.12.75,2.11,1.35,2.96.6.86,1.36,1.54,2.26,2.03s1.96.74,3.16.74,2.23-.25,3.13-.74,1.64-1.17,2.24-2.03c.59-.86,1.04-1.85,1.35-2.96.3-1.12.46-2.31.46-3.57v-.54c0-1.25-.15-2.43-.46-3.55-.3-1.12-.76-2.11-1.36-2.98s-1.35-1.55-2.25-2.05c-.9-.5-1.95-.75-3.15-.75s-2.23.25-3.13.75c-.9.5-1.65,1.18-2.25,2.05s-1.05,1.86-1.35,2.98c-.3,1.12-.45,2.3-.45,3.55Z"/>
    <path class="st0" d="M347.79,173.57v-.49c0-1.94.23-3.7.69-5.29.46-1.58,1.12-2.95,1.99-4.09.87-1.14,1.92-2.02,3.15-2.64,1.23-.62,2.62-.93,4.17-.93s2.99.28,4.18.83c1.2.56,2.21,1.36,3.05,2.41s1.5,2.33,1.98,3.81c.48,1.49.82,3.16,1.01,5.04v2.16c-.17,1.86-.5,3.53-1,5.02-.49,1.49-1.16,2.75-1.99,3.8-.84,1.05-1.86,1.85-3.06,2.4-1.2.55-2.61.83-4.22.83-1.52,0-2.89-.32-4.11-.96-1.23-.64-2.28-1.54-3.15-2.7-.88-1.16-1.54-2.52-2-4.09s-.69-3.28-.69-5.12ZM365.25,160.61h3.94v24.82c0,2.23-.45,4.14-1.36,5.72s-2.17,2.78-3.79,3.6-3.48,1.23-5.59,1.23c-.88,0-1.9-.14-3.08-.41s-2.34-.73-3.47-1.38-2.08-1.52-2.85-2.61l2.27-2.58c1.06,1.28,2.18,2.17,3.34,2.67s2.32.75,3.46.75c1.38,0,2.56-.26,3.56-.77s1.78-1.28,2.33-2.29.83-2.25.83-3.71v-19.45l.4-5.58ZM352.12,173.08v.49c0,1.27.13,2.45.39,3.56.26,1.11.66,2.09,1.2,2.93s1.23,1.5,2.07,1.98c.84.48,1.85.71,3.02.71,1.44,0,2.62-.3,3.56-.91s1.68-1.41,2.24-2.41c.55-1,.99-2.09,1.3-3.26v-5.65c-.17-.86-.43-1.69-.79-2.5-.35-.8-.8-1.52-1.36-2.16s-1.24-1.14-2.05-1.51-1.77-.56-2.86-.56c-1.19,0-2.21.25-3.06.74s-1.55,1.17-2.09,2.02c-.54.85-.94,1.84-1.2,2.95-.26,1.12-.39,2.31-.39,3.57Z"/>
    <path class="st0" d="M380.11,166.02v19.95h-4.34v-25.36h4.1l.23,5.41ZM379.08,172.33l-1.8-.07c.02-1.73.27-3.34.77-4.82s1.2-2.76,2.11-3.86c.91-1.09,1.99-1.94,3.25-2.54,1.26-.6,2.65-.9,4.18-.9,1.25,0,2.38.17,3.38.5,1,.34,1.86.87,2.57,1.61.71.74,1.25,1.68,1.63,2.85.38,1.17.56,2.58.56,4.25v16.62h-4.36v-16.66c0-1.33-.2-2.39-.59-3.2-.39-.8-.96-1.39-1.71-1.76-.75-.37-1.67-.55-2.77-.55s-2.06.23-2.94.68c-.88.45-1.64,1.08-2.27,1.88s-1.12,1.71-1.48,2.73c-.35,1.02-.53,2.11-.53,3.25Z"/>
    <path class="st0" d="M402.3,153.88c0-.7.21-1.3.64-1.78.43-.48,1.07-.73,1.91-.73s1.46.24,1.91.73c.45.49.67,1.08.67,1.78s-.22,1.25-.67,1.72c-.45.48-1.08.71-1.91.71s-1.48-.24-1.91-.71c-.43-.48-.64-1.05-.64-1.72ZM406.99,160.61v25.36h-4.36v-25.36h4.36Z"/>
    <path class="st0" d="M424.57,160.61v3.33h-13.71v-3.33h13.71ZM415.5,154.44h4.34v25.24c0,.86.13,1.51.4,1.95.27.44.61.73,1.03.87s.88.21,1.36.21c.36,0,.74-.04,1.14-.11s.7-.13.9-.18l.02,3.54c-.34.11-.79.21-1.35.32s-1.22.15-2,.15c-1.06,0-2.04-.21-2.93-.63s-1.6-1.13-2.12-2.12c-.52-.99-.79-2.33-.79-4.02v-25.22Z"/>
    <path class="st0" d="M429.68,153.88c0-.7.21-1.3.64-1.78.43-.48,1.07-.73,1.91-.73s1.46.24,1.91.73c.45.49.67,1.08.67,1.78s-.22,1.25-.67,1.72c-.45.48-1.08.71-1.91.71s-1.48-.24-1.91-.71c-.43-.48-.64-1.05-.64-1.72ZM434.37,160.61v25.36h-4.36v-25.36h4.36Z"/>
    <path class="st0" d="M440.18,173.57v-.54c0-1.83.27-3.53.8-5.1s1.3-2.94,2.3-4.1c1-1.16,2.21-2.07,3.63-2.72,1.42-.65,3.02-.97,4.78-.97s3.39.33,4.82.97c1.43.65,2.65,1.56,3.66,2.72,1.01,1.17,1.78,2.53,2.31,4.1s.8,3.27.8,5.1v.54c0,1.83-.27,3.52-.8,5.09-.53,1.56-1.3,2.93-2.31,4.09-1.01,1.17-2.22,2.07-3.63,2.72-1.41.65-3.01.97-4.79.97s-3.38-.32-4.8-.97c-1.42-.65-2.64-1.55-3.64-2.72-1.01-1.16-1.78-2.53-2.31-4.09-.53-1.56-.8-3.26-.8-5.09ZM444.52,173.03v.54c0,1.27.15,2.46.45,3.57.3,1.12.75,2.11,1.35,2.96.6.86,1.36,1.54,2.26,2.03s1.96.74,3.16.74,2.23-.25,3.13-.74,1.64-1.17,2.24-2.03c.59-.86,1.04-1.85,1.35-2.96.3-1.12.46-2.31.46-3.57v-.54c0-1.25-.15-2.43-.46-3.55-.3-1.12-.76-2.11-1.36-2.98s-1.35-1.55-2.25-2.05c-.9-.5-1.95-.75-3.15-.75s-2.23.25-3.13.75c-.9.5-1.65,1.18-2.25,2.05s-1.05,1.86-1.35,2.98c-.3,1.12-.45,2.3-.45,3.55Z"/>
    <path class="st0" d="M473.04,166.02v19.95h-4.34v-25.36h4.1l.23,5.41ZM472.01,172.33l-1.8-.07c.02-1.73.27-3.34.77-4.82s1.2-2.76,2.11-3.86c.91-1.09,1.99-1.94,3.25-2.54,1.26-.6,2.65-.9,4.18-.9,1.25,0,2.38.17,3.38.5,1,.34,1.86.87,2.57,1.61.71.74,1.25,1.68,1.63,2.85.38,1.17.56,2.58.56,4.25v16.62h-4.36v-16.66c0-1.33-.2-2.39-.59-3.2-.39-.8-.96-1.39-1.71-1.76-.75-.37-1.67-.55-2.77-.55s-2.06.23-2.94.68c-.88.45-1.64,1.08-2.27,1.88s-1.12,1.71-1.48,2.73c-.35,1.02-.53,2.11-.53,3.25Z"/>
  </g>
</svg>